<svg width="598" height="161" viewBox="0 0 598 161" fill="none" xmlns="http://www.w3.org/2000/svg">
<g filter="url(#filter0_d_202_2)">
<path d="M53 113C53 115.209 51.2091 117 49 117C46.7909 117 45 115.209 45 113C45 110.791 46.7909 109 49 109C51.2091 109 53 110.791 53 113Z" fill="#4845DD"/>
<path d="M75 113C75 115.209 73.2091 117 71 117C68.7909 117 67 115.209 67 113C67 110.791 68.7909 109 71 109C73.2091 109 75 110.791 75 113Z" fill="#4845DD"/>
<path d="M27 106.966L27.3845 46L20 51.5V109.929C20 110.238 20.1427 110.53 20.3867 110.719L59.0642 139.292C59.4117 139.562 60.6945 139.546 61.0539 139.292L100 109.929C100.265 109.742 100.423 109.437 100.423 109.112L100 51.5L93 46V106.937C93 107.261 92.8431 107.565 92.5789 107.753L60.6945 131.027C60.334 131.283 59.8484 131.272 59.5 131L27.3845 107.754C27.1418 107.565 27 107.274 27 106.966Z" fill="#4845DD"/>
</g>
<path d="M114.531 47.8176L62.2218 5.07973C60.7425 3.87111 58.6151 3.87715 57.1426 5.09414L5.45167 47.8181C4.53229 48.578 4 49.7085 4 50.9013V113.497C4 114.769 4.60468 115.964 5.62885 116.718L58.4976 155.632C59.1994 156.149 60.1551 156.152 60.8598 155.639L114.353 116.717C115.388 115.965 116 114.762 116 113.483V50.9152C116 49.7145 115.461 48.5773 114.531 47.8176Z" stroke="#4845DD" stroke-width="8"/>
<g filter="url(#filter1_d_202_2)">
<path fill-rule="evenodd" clip-rule="evenodd" d="M73.8763 67.2088C78.8844 63.1679 82.0879 56.98 82.0879 50.0439C82.0879 37.8694 72.2185 28 60.0439 28C47.8694 28 38 37.8694 38 50.0439C38 57.2121 41.4214 63.5812 46.7203 67.6072L40.5684 105.568C40.4698 106.177 40.9394 106.728 41.5555 106.728H79.8587C80.4825 106.728 80.9541 106.163 80.8426 105.55L73.8763 67.2088ZM74.0879 50.0439C74.0879 57.8002 67.8002 64.0879 60.0439 64.0879C52.2877 64.0879 46 57.8002 46 50.0439C46 42.2877 52.2877 36 60.0439 36C67.8002 36 74.0879 42.2877 74.0879 50.0439ZM64.5318 85.8708C66.4115 84.5529 67.6403 82.3699 67.6403 79.9C67.6403 75.8753 64.3777 72.6127 60.3531 72.6127C56.3284 72.6127 53.0658 75.8753 53.0658 79.9C53.0658 82.131 54.0684 84.1279 55.6476 85.4646L52.3727 97.3735C52.1976 98.0101 52.6766 98.6386 53.3369 98.6386H67.3048C67.9842 98.6386 68.4658 97.9757 68.2559 97.3295L64.5318 85.8708Z" fill="#4845DD"/>
</g>
<path d="M176.46 104H169.1V98.48L163.58 104H144.26C142.543 104 141.04 103.356 139.752 102.068C138.464 100.78 137.82 99.2773 137.82 97.56V65.36C137.82 63.6427 138.464 62.14 139.752 60.852C141.04 59.564 142.543 58.92 144.26 58.92H176.46V65.36H145.18V97.56H169.1V84.68H157.14L163.58 78.24H176.46V104Z" fill="#838383"/>
<path d="M224.329 104H217.889V99.308L212.369 104H198.569C196.79 104 195.257 103.387 193.969 102.16C192.742 100.872 192.129 99.3387 192.129 97.56V91.12C192.129 89.3413 192.742 87.8387 193.969 86.612C195.257 85.324 196.79 84.68 198.569 84.68H216.969L211.449 90.108H198.569V98.48H217.889V77.32H192.129L197.649 71.8H217.889C219.667 71.8 221.17 72.444 222.397 73.732C223.685 74.9587 224.329 76.4613 224.329 78.24V104Z" fill="#838383"/>
<path d="M262.933 104H250.053C248.274 104 246.741 103.387 245.453 102.16C244.226 100.872 243.613 99.3387 243.613 97.56V77.32H234.413L239.933 71.8H243.613V65.36L250.053 58.92V71.8H262.933V77.32H250.053V98.48H262.933V104Z" fill="#838383"/>
<path d="M308.94 104H283.18C281.401 104 279.868 103.387 278.58 102.16C277.353 100.872 276.74 99.3387 276.74 97.56V78.24C276.74 76.4613 277.353 74.9587 278.58 73.732C279.868 72.444 281.401 71.8 283.18 71.8H302.5C304.279 71.8 305.781 72.444 307.008 73.732C308.296 74.9587 308.94 76.4613 308.94 78.24V84.68L302.5 91.12H284.1L289.62 85.6H302.5V77.32H283.18V98.48H308.94V104Z" fill="#838383"/>
<path d="M366.436 58.92L346.012 77.964V78.884H357.696C359.475 78.884 360.978 79.528 362.204 80.816C363.492 82.0427 364.136 83.5453 364.136 85.324V104H356.776V84.68H332.856V104H325.496V58.92H332.856V83.484L357.328 58.92H366.436Z" fill="#838383"/>
<path d="M413.824 104H388.064C386.285 104 384.752 103.387 383.464 102.16C382.237 100.872 381.624 99.3387 381.624 97.56V78.24C381.624 76.4613 382.237 74.9587 383.464 73.732C384.752 72.444 386.285 71.8 388.064 71.8H407.384C409.162 71.8 410.665 72.444 411.892 73.732C413.18 74.9587 413.824 76.4613 413.824 78.24V84.68L407.384 91.12H388.984L394.504 85.6H407.384V77.32H388.064V98.48H413.824V104Z" fill="#838383"/>
<path d="M460.74 104H434.98C433.201 104 431.668 103.387 430.38 102.16C429.153 100.872 428.54 99.3387 428.54 97.56V78.24C428.54 76.4613 429.153 74.9587 430.38 73.732C431.668 72.444 433.201 71.8 434.98 71.8H454.3C456.079 71.8 457.581 72.444 458.808 73.732C460.096 74.9587 460.74 76.4613 460.74 78.24V84.68L454.3 91.12H435.9L441.42 85.6H454.3V77.32H434.98V98.48H460.74V104Z" fill="#838383"/>
<path d="M507.656 97.56C507.656 99.3387 507.012 100.872 505.724 102.16C504.498 103.387 502.995 104 501.216 104H481.896V123.32H475.456V71.8H481.896V76.4L486.496 71.8H501.216C502.995 71.8 504.498 72.444 505.724 73.732C507.012 74.9587 507.656 76.4613 507.656 78.24V97.56ZM501.216 98.48V77.32H481.896V103.08L486.496 98.48H501.216Z" fill="#838383"/>
<path d="M557.358 104H531.598C529.819 104 528.286 103.387 526.998 102.16C525.771 100.872 525.158 99.3387 525.158 97.56V78.24C525.158 76.4613 525.771 74.9587 526.998 73.732C528.286 72.444 529.819 71.8 531.598 71.8H550.918C552.697 71.8 554.199 72.444 555.426 73.732C556.714 74.9587 557.358 76.4613 557.358 78.24V84.68L550.918 91.12H532.518L538.038 85.6H550.918V77.32H531.598V98.48H557.358V104Z" fill="#838383"/>
<path d="M597.834 84.68H591.394V77.32H578.514V104H572.074V71.8H578.514V76.4L583.114 71.8H591.394C593.173 71.8 594.676 72.444 595.902 73.732C597.19 74.9587 597.834 76.4613 597.834 78.24V84.68Z" fill="#838383"/>
<defs>
<filter id="filter0_d_202_2" x="16" y="46" width="88.4233" height="101.488" filterUnits="userSpaceOnUse" color-interpolation-filters="sRGB">
<feFlood flood-opacity="0" result="BackgroundImageFix"/>
<feColorMatrix in="SourceAlpha" type="matrix" values="0 0 0 0 0 0 0 0 0 0 0 0 0 0 0 0 0 0 127 0" result="hardAlpha"/>
<feOffset dy="4"/>
<feGaussianBlur stdDeviation="2"/>
<feComposite in2="hardAlpha" operator="out"/>
<feColorMatrix type="matrix" values="0 0 0 0 0 0 0 0 0 0 0 0 0 0 0 0 0 0 0.25 0"/>
<feBlend mode="normal" in2="BackgroundImageFix" result="effect1_dropShadow_202_2"/>
<feBlend mode="normal" in="SourceGraphic" in2="effect1_dropShadow_202_2" result="shape"/>
</filter>
<filter id="filter1_d_202_2" x="34" y="28" width="52.0879" height="86.7283" filterUnits="userSpaceOnUse" color-interpolation-filters="sRGB">
<feFlood flood-opacity="0" result="BackgroundImageFix"/>
<feColorMatrix in="SourceAlpha" type="matrix" values="0 0 0 0 0 0 0 0 0 0 0 0 0 0 0 0 0 0 127 0" result="hardAlpha"/>
<feOffset dy="4"/>
<feGaussianBlur stdDeviation="2"/>
<feComposite in2="hardAlpha" operator="out"/>
<feColorMatrix type="matrix" values="0 0 0 0 0 0 0 0 0 0 0 0 0 0 0 0 0 0 0.25 0"/>
<feBlend mode="normal" in2="BackgroundImageFix" result="effect1_dropShadow_202_2"/>
<feBlend mode="normal" in="SourceGraphic" in2="effect1_dropShadow_202_2" result="shape"/>
</filter>
</defs>
</svg>
