<svg width="461" height="66" viewBox="0 0 461 66" fill="none" xmlns="http://www.w3.org/2000/svg">
<path d="M39.46 46H32.1V40.48L26.58 46H7.26001C5.54267 46 4.04001 45.356 2.75201 44.068C1.46401 42.78 0.820007 41.2773 0.820007 39.56V7.36C0.820007 5.64266 1.46401 4.14 2.75201 2.852C4.04001 1.564 5.54267 0.919998 7.26001 0.919998H39.46V7.36H8.18001V39.56H32.1V26.68H20.14L26.58 20.24H39.46V46Z" fill="#2A2A2A"/>
<path d="M87.3288 46H80.8888V41.308L75.3688 46H61.5688C59.7901 46 58.2568 45.3867 56.9688 44.16C55.7421 42.872 55.1288 41.3387 55.1288 39.56V33.12C55.1288 31.3413 55.7421 29.8387 56.9688 28.612C58.2568 27.324 59.7901 26.68 61.5688 26.68H79.9688L74.4488 32.108H61.5688V40.48H80.8888V19.32H55.1288L60.6488 13.8H80.8888C82.6674 13.8 84.1701 14.444 85.3968 15.732C86.6848 16.9587 87.3288 18.4613 87.3288 20.24V46Z" fill="#2A2A2A"/>
<path d="M125.933 46H113.053C111.274 46 109.741 45.3867 108.453 44.16C107.226 42.872 106.613 41.3387 106.613 39.56V19.32H97.4128L102.933 13.8H106.613V7.36L113.053 0.919998V13.8H125.933V19.32H113.053V40.48H125.933V46Z" fill="#2A2A2A"/>
<path d="M171.94 46H146.18C144.401 46 142.868 45.3867 141.58 44.16C140.353 42.872 139.74 41.3387 139.74 39.56V20.24C139.74 18.4613 140.353 16.9587 141.58 15.732C142.868 14.444 144.401 13.8 146.18 13.8H165.5C167.279 13.8 168.781 14.444 170.008 15.732C171.296 16.9587 171.94 18.4613 171.94 20.24V26.68L165.5 33.12H147.1L152.62 27.6H165.5V19.32H146.18V40.48H171.94V46Z" fill="#2A2A2A"/>
<path d="M229.436 0.919998L209.012 19.964V20.884H220.696C222.475 20.884 223.978 21.528 225.204 22.816C226.492 24.0427 227.136 25.5453 227.136 27.324V46H219.776V26.68H195.856V46H188.496V0.919998H195.856V25.484L220.328 0.919998H229.436Z" fill="#2A2A2A"/>
<path d="M276.824 46H251.064C249.285 46 247.752 45.3867 246.464 44.16C245.237 42.872 244.624 41.3387 244.624 39.56V20.24C244.624 18.4613 245.237 16.9587 246.464 15.732C247.752 14.444 249.285 13.8 251.064 13.8H270.384C272.162 13.8 273.665 14.444 274.892 15.732C276.18 16.9587 276.824 18.4613 276.824 20.24V26.68L270.384 33.12H251.984L257.504 27.6H270.384V19.32H251.064V40.48H276.824V46Z" fill="#2A2A2A"/>
<path d="M323.74 46H297.98C296.201 46 294.668 45.3867 293.38 44.16C292.153 42.872 291.54 41.3387 291.54 39.56V20.24C291.54 18.4613 292.153 16.9587 293.38 15.732C294.668 14.444 296.201 13.8 297.98 13.8H317.3C319.079 13.8 320.581 14.444 321.808 15.732C323.096 16.9587 323.74 18.4613 323.74 20.24V26.68L317.3 33.12H298.9L304.42 27.6H317.3V19.32H297.98V40.48H323.74V46Z" fill="#2A2A2A"/>
<path d="M370.656 39.56C370.656 41.3387 370.012 42.872 368.724 44.16C367.498 45.3867 365.995 46 364.216 46H344.896V65.32H338.456V13.8H344.896V18.4L349.496 13.8H364.216C365.995 13.8 367.498 14.444 368.724 15.732C370.012 16.9587 370.656 18.4613 370.656 20.24V39.56ZM364.216 40.48V19.32H344.896V45.08L349.496 40.48H364.216Z" fill="#2A2A2A"/>
<path d="M420.358 46H394.598C392.819 46 391.286 45.3867 389.998 44.16C388.771 42.872 388.158 41.3387 388.158 39.56V20.24C388.158 18.4613 388.771 16.9587 389.998 15.732C391.286 14.444 392.819 13.8 394.598 13.8H413.918C415.697 13.8 417.199 14.444 418.426 15.732C419.714 16.9587 420.358 18.4613 420.358 20.24V26.68L413.918 33.12H395.518L401.038 27.6H413.918V19.32H394.598V40.48H420.358V46Z" fill="#2A2A2A"/>
<path d="M460.834 26.68H454.394V19.32H441.514V46H435.074V13.8H441.514V18.4L446.114 13.8H454.394C456.173 13.8 457.676 14.444 458.902 15.732C460.19 16.9587 460.834 18.4613 460.834 20.24V26.68Z" fill="#2A2A2A"/>
</svg>
