<svg width="602" height="169" viewBox="0 0 602 169" fill="none" xmlns="http://www.w3.org/2000/svg">
<g filter="url(#filter0_d_202_2)">
<g filter="url(#filter1_d_202_2)">
<path d="M57 113C57 115.209 55.2091 117 53 117C50.7909 117 49 115.209 49 113C49 110.791 50.7909 109 53 109C55.2091 109 57 110.791 57 113Z" fill="#4845DD"/>
<path d="M79 113C79 115.209 77.2091 117 75 117C72.7909 117 71 115.209 71 113C71 110.791 72.7909 109 75 109C77.2091 109 79 110.791 79 113Z" fill="#4845DD"/>
<path d="M31 106.966L31.3845 46L24 51.5V109.929C24 110.238 24.1427 110.53 24.3867 110.719L63.0642 139.292C63.4117 139.562 64.6945 139.546 65.0539 139.292L104 109.929C104.265 109.742 104.423 109.437 104.423 109.112L104 51.5L97 46V106.937C97 107.261 96.8431 107.565 96.5789 107.753L64.6945 131.027C64.334 131.283 63.8484 131.272 63.5 131L31.3845 107.754C31.1418 107.565 31 107.274 31 106.966Z" fill="#4845DD"/>
</g>
<path d="M118.531 47.8176L66.2218 5.07973C64.7425 3.87111 62.6151 3.87715 61.1426 5.09414L9.45167 47.8181C8.53229 48.578 8 49.7085 8 50.9013V113.497C8 114.769 8.60468 115.964 9.62885 116.718L62.4976 155.632C63.1994 156.149 64.1551 156.152 64.8598 155.639L118.353 116.717C119.388 115.965 120 114.762 120 113.483V50.9152C120 49.7145 119.461 48.5773 118.531 47.8176Z" stroke="#4845DD" stroke-width="8"/>
<g filter="url(#filter2_d_202_2)">
<path fill-rule="evenodd" clip-rule="evenodd" d="M77.8763 67.2088C82.8844 63.1679 86.0879 56.98 86.0879 50.0439C86.0879 37.8694 76.2185 28 64.0439 28C51.8694 28 42 37.8694 42 50.0439C42 57.2121 45.4214 63.5812 50.7203 67.6072L44.5684 105.568C44.4698 106.177 44.9394 106.728 45.5555 106.728H83.8587C84.4825 106.728 84.9541 106.163 84.8426 105.55L77.8763 67.2088ZM78.0879 50.0439C78.0879 57.8002 71.8002 64.0879 64.0439 64.0879C56.2877 64.0879 50 57.8002 50 50.0439C50 42.2877 56.2877 36 64.0439 36C71.8002 36 78.0879 42.2877 78.0879 50.0439ZM68.5318 85.8708C70.4115 84.5529 71.6403 82.3699 71.6403 79.9C71.6403 75.8753 68.3777 72.6127 64.3531 72.6127C60.3284 72.6127 57.0658 75.8753 57.0658 79.9C57.0658 82.131 58.0684 84.1279 59.6476 85.4646L56.3727 97.3735C56.1976 98.0101 56.6766 98.6386 57.3369 98.6386H71.3048C71.9842 98.6386 72.4658 97.9757 72.2559 97.3295L68.5318 85.8708Z" fill="#4845DD"/>
</g>
</g>
<path d="M180.46 104H173.1V98.48L167.58 104H148.26C146.543 104 145.04 103.356 143.752 102.068C142.464 100.78 141.82 99.2773 141.82 97.56V65.36C141.82 63.6427 142.464 62.14 143.752 60.852C145.04 59.564 146.543 58.92 148.26 58.92H180.46V65.36H149.18V97.56H173.1V84.68H161.14L167.58 78.24H180.46V104Z" fill="#838383"/>
<path d="M228.329 104H221.889V99.308L216.369 104H202.569C200.79 104 199.257 103.387 197.969 102.16C196.742 100.872 196.129 99.3387 196.129 97.56V91.12C196.129 89.3413 196.742 87.8387 197.969 86.612C199.257 85.324 200.79 84.68 202.569 84.68H220.969L215.449 90.108H202.569V98.48H221.889V77.32H196.129L201.649 71.8H221.889C223.667 71.8 225.17 72.444 226.397 73.732C227.685 74.9587 228.329 76.4613 228.329 78.24V104Z" fill="#838383"/>
<path d="M266.933 104H254.053C252.274 104 250.741 103.387 249.453 102.16C248.226 100.872 247.613 99.3387 247.613 97.56V77.32H238.413L243.933 71.8H247.613V65.36L254.053 58.92V71.8H266.933V77.32H254.053V98.48H266.933V104Z" fill="#838383"/>
<path d="M312.94 104H287.18C285.401 104 283.868 103.387 282.58 102.16C281.353 100.872 280.74 99.3387 280.74 97.56V78.24C280.74 76.4613 281.353 74.9587 282.58 73.732C283.868 72.444 285.401 71.8 287.18 71.8H306.5C308.279 71.8 309.781 72.444 311.008 73.732C312.296 74.9587 312.94 76.4613 312.94 78.24V84.68L306.5 91.12H288.1L293.62 85.6H306.5V77.32H287.18V98.48H312.94V104Z" fill="#838383"/>
<path d="M370.436 58.92L350.012 77.964V78.884H361.696C363.475 78.884 364.978 79.528 366.204 80.816C367.492 82.0427 368.136 83.5453 368.136 85.324V104H360.776V84.68H336.856V104H329.496V58.92H336.856V83.484L361.328 58.92H370.436Z" fill="#838383"/>
<path d="M417.824 104H392.064C390.285 104 388.752 103.387 387.464 102.16C386.237 100.872 385.624 99.3387 385.624 97.56V78.24C385.624 76.4613 386.237 74.9587 387.464 73.732C388.752 72.444 390.285 71.8 392.064 71.8H411.384C413.162 71.8 414.665 72.444 415.892 73.732C417.18 74.9587 417.824 76.4613 417.824 78.24V84.68L411.384 91.12H392.984L398.504 85.6H411.384V77.32H392.064V98.48H417.824V104Z" fill="#838383"/>
<path d="M464.74 104H438.98C437.201 104 435.668 103.387 434.38 102.16C433.153 100.872 432.54 99.3387 432.54 97.56V78.24C432.54 76.4613 433.153 74.9587 434.38 73.732C435.668 72.444 437.201 71.8 438.98 71.8H458.3C460.079 71.8 461.581 72.444 462.808 73.732C464.096 74.9587 464.74 76.4613 464.74 78.24V84.68L458.3 91.12H439.9L445.42 85.6H458.3V77.32H438.98V98.48H464.74V104Z" fill="#838383"/>
<path d="M511.656 97.56C511.656 99.3387 511.012 100.872 509.724 102.16C508.498 103.387 506.995 104 505.216 104H485.896V123.32H479.456V71.8H485.896V76.4L490.496 71.8H505.216C506.995 71.8 508.498 72.444 509.724 73.732C511.012 74.9587 511.656 76.4613 511.656 78.24V97.56ZM505.216 98.48V77.32H485.896V103.08L490.496 98.48H505.216Z" fill="#838383"/>
<path d="M561.358 104H535.598C533.819 104 532.286 103.387 530.998 102.16C529.771 100.872 529.158 99.3387 529.158 97.56V78.24C529.158 76.4613 529.771 74.9587 530.998 73.732C532.286 72.444 533.819 71.8 535.598 71.8H554.918C556.697 71.8 558.199 72.444 559.426 73.732C560.714 74.9587 561.358 76.4613 561.358 78.24V84.68L554.918 91.12H536.518L542.038 85.6H554.918V77.32H535.598V98.48H561.358V104Z" fill="#838383"/>
<path d="M601.834 84.68H595.394V77.32H582.514V104H576.074V71.8H582.514V76.4L587.114 71.8H595.394C597.173 71.8 598.676 72.444 599.902 73.732C601.19 74.9587 601.834 76.4613 601.834 78.24V84.68Z" fill="#838383"/>
<defs>
<filter id="filter0_d_202_2" x="0" y="0.177315" width="128" height="167.844" filterUnits="userSpaceOnUse" color-interpolation-filters="sRGB">
<feFlood flood-opacity="0" result="BackgroundImageFix"/>
<feColorMatrix in="SourceAlpha" type="matrix" values="0 0 0 0 0 0 0 0 0 0 0 0 0 0 0 0 0 0 127 0" result="hardAlpha"/>
<feOffset dy="4"/>
<feGaussianBlur stdDeviation="2"/>
<feComposite in2="hardAlpha" operator="out"/>
<feColorMatrix type="matrix" values="0 0 0 0 0 0 0 0 0 0 0 0 0 0 0 0 0 0 0.25 0"/>
<feBlend mode="normal" in2="BackgroundImageFix" result="effect1_dropShadow_202_2"/>
<feBlend mode="normal" in="SourceGraphic" in2="effect1_dropShadow_202_2" result="shape"/>
</filter>
<filter id="filter1_d_202_2" x="20" y="46" width="88.4233" height="101.488" filterUnits="userSpaceOnUse" color-interpolation-filters="sRGB">
<feFlood flood-opacity="0" result="BackgroundImageFix"/>
<feColorMatrix in="SourceAlpha" type="matrix" values="0 0 0 0 0 0 0 0 0 0 0 0 0 0 0 0 0 0 127 0" result="hardAlpha"/>
<feOffset dy="4"/>
<feGaussianBlur stdDeviation="2"/>
<feComposite in2="hardAlpha" operator="out"/>
<feColorMatrix type="matrix" values="0 0 0 0 0 0 0 0 0 0 0 0 0 0 0 0 0 0 0.25 0"/>
<feBlend mode="normal" in2="BackgroundImageFix" result="effect1_dropShadow_202_2"/>
<feBlend mode="normal" in="SourceGraphic" in2="effect1_dropShadow_202_2" result="shape"/>
</filter>
<filter id="filter2_d_202_2" x="38" y="28" width="52.0879" height="86.7283" filterUnits="userSpaceOnUse" color-interpolation-filters="sRGB">
<feFlood flood-opacity="0" result="BackgroundImageFix"/>
<feColorMatrix in="SourceAlpha" type="matrix" values="0 0 0 0 0 0 0 0 0 0 0 0 0 0 0 0 0 0 127 0" result="hardAlpha"/>
<feOffset dy="4"/>
<feGaussianBlur stdDeviation="2"/>
<feComposite in2="hardAlpha" operator="out"/>
<feColorMatrix type="matrix" values="0 0 0 0 0 0 0 0 0 0 0 0 0 0 0 0 0 0 0.25 0"/>
<feBlend mode="normal" in2="BackgroundImageFix" result="effect1_dropShadow_202_2"/>
<feBlend mode="normal" in="SourceGraphic" in2="effect1_dropShadow_202_2" result="shape"/>
</filter>
</defs>
</svg>
