<svg width="128" height="169" viewBox="0 0 128 169" fill="none" xmlns="http://www.w3.org/2000/svg">
<g filter="url(#filter0_d_826_74)">
<g filter="url(#filter1_d_826_74)">
<path d="M57 113C57 115.209 55.2091 117 53 117C50.7909 117 49 115.209 49 113C49 110.791 50.7909 109 53 109C55.2091 109 57 110.791 57 113Z" fill="#4845DD"/>
<path d="M79 113C79 115.209 77.2091 117 75 117C72.7909 117 71 115.209 71 113C71 110.791 72.7909 109 75 109C77.2091 109 79 110.791 79 113Z" fill="#4845DD"/>
<path d="M31 106.966L31.3845 46L24 51.5V109.929C24 110.238 24.1427 110.53 24.3867 110.719L63.0642 139.292C63.4117 139.562 64.6945 139.546 65.0539 139.292L104 109.929C104.265 109.742 104.423 109.437 104.423 109.112L104 51.5L97 46V106.937C97 107.261 96.8431 107.565 96.5789 107.753L64.6945 131.027C64.334 131.283 63.8484 131.272 63.5 131L31.3845 107.754C31.1418 107.565 31 107.274 31 106.966Z" fill="#4845DD"/>
</g>
<path d="M118.531 47.8176L66.2218 5.07973C64.7425 3.87111 62.6151 3.87715 61.1426 5.09414L9.45167 47.8181C8.53229 48.578 8 49.7085 8 50.9013V113.497C8 114.769 8.60468 115.964 9.62885 116.718L62.4976 155.632C63.1994 156.149 64.1551 156.152 64.8598 155.639L118.353 116.717C119.388 115.965 120 114.762 120 113.483V50.9152C120 49.7145 119.461 48.5773 118.531 47.8176Z" stroke="#4845DD" stroke-width="8"/>
<g filter="url(#filter2_d_826_74)">
<path fill-rule="evenodd" clip-rule="evenodd" d="M77.8763 67.2088C82.8844 63.1679 86.0879 56.98 86.0879 50.0439C86.0879 37.8694 76.2185 28 64.0439 28C51.8694 28 42 37.8694 42 50.0439C42 57.2121 45.4214 63.5812 50.7203 67.6072L44.5684 105.568C44.4698 106.177 44.9394 106.728 45.5555 106.728H83.8587C84.4825 106.728 84.9541 106.163 84.8426 105.55L77.8763 67.2088ZM78.0879 50.0439C78.0879 57.8002 71.8002 64.0879 64.0439 64.0879C56.2877 64.0879 50 57.8002 50 50.0439C50 42.2877 56.2877 36 64.0439 36C71.8002 36 78.0879 42.2877 78.0879 50.0439ZM68.5318 85.8708C70.4115 84.5529 71.6403 82.3699 71.6403 79.9C71.6403 75.8753 68.3777 72.6127 64.3531 72.6127C60.3284 72.6127 57.0658 75.8753 57.0658 79.9C57.0658 82.131 58.0684 84.1279 59.6476 85.4646L56.3727 97.3735C56.1976 98.0101 56.6766 98.6386 57.3369 98.6386H71.3048C71.9842 98.6386 72.4658 97.9757 72.2559 97.3295L68.5318 85.8708Z" fill="#4845DD"/>
</g>
</g>
<defs>
<filter id="filter0_d_826_74" x="0" y="0.177315" width="128" height="167.844" filterUnits="userSpaceOnUse" color-interpolation-filters="sRGB">
<feFlood flood-opacity="0" result="BackgroundImageFix"/>
<feColorMatrix in="SourceAlpha" type="matrix" values="0 0 0 0 0 0 0 0 0 0 0 0 0 0 0 0 0 0 127 0" result="hardAlpha"/>
<feOffset dy="4"/>
<feGaussianBlur stdDeviation="2"/>
<feComposite in2="hardAlpha" operator="out"/>
<feColorMatrix type="matrix" values="0 0 0 0 0 0 0 0 0 0 0 0 0 0 0 0 0 0 0.25 0"/>
<feBlend mode="normal" in2="BackgroundImageFix" result="effect1_dropShadow_826_74"/>
<feBlend mode="normal" in="SourceGraphic" in2="effect1_dropShadow_826_74" result="shape"/>
</filter>
<filter id="filter1_d_826_74" x="20" y="46" width="88.4233" height="101.488" filterUnits="userSpaceOnUse" color-interpolation-filters="sRGB">
<feFlood flood-opacity="0" result="BackgroundImageFix"/>
<feColorMatrix in="SourceAlpha" type="matrix" values="0 0 0 0 0 0 0 0 0 0 0 0 0 0 0 0 0 0 127 0" result="hardAlpha"/>
<feOffset dy="4"/>
<feGaussianBlur stdDeviation="2"/>
<feComposite in2="hardAlpha" operator="out"/>
<feColorMatrix type="matrix" values="0 0 0 0 0 0 0 0 0 0 0 0 0 0 0 0 0 0 0.25 0"/>
<feBlend mode="normal" in2="BackgroundImageFix" result="effect1_dropShadow_826_74"/>
<feBlend mode="normal" in="SourceGraphic" in2="effect1_dropShadow_826_74" result="shape"/>
</filter>
<filter id="filter2_d_826_74" x="38" y="28" width="52.0879" height="86.7283" filterUnits="userSpaceOnUse" color-interpolation-filters="sRGB">
<feFlood flood-opacity="0" result="BackgroundImageFix"/>
<feColorMatrix in="SourceAlpha" type="matrix" values="0 0 0 0 0 0 0 0 0 0 0 0 0 0 0 0 0 0 127 0" result="hardAlpha"/>
<feOffset dy="4"/>
<feGaussianBlur stdDeviation="2"/>
<feComposite in2="hardAlpha" operator="out"/>
<feColorMatrix type="matrix" values="0 0 0 0 0 0 0 0 0 0 0 0 0 0 0 0 0 0 0.25 0"/>
<feBlend mode="normal" in2="BackgroundImageFix" result="effect1_dropShadow_826_74"/>
<feBlend mode="normal" in="SourceGraphic" in2="effect1_dropShadow_826_74" result="shape"/>
</filter>
</defs>
</svg>
